<svg width="118" height="41" viewBox="0 0 118 41" fill="none" xmlns="http://www.w3.org/2000/svg">
<path d="M15.0358 25.4427C10.8913 30.6166 6.80526 35.709 2.69486 40.837C1.88449 40.4911 1.12782 40.1808 0.385802 39.8348C0.253995 39.7738 0.175888 39.5499 0.112425 39.3871C0.0733715 39.2803 0.102662 39.148 0.102662 39.0259C0.0928984 35.0782 0.0928984 31.1253 0.0684898 27.1775C0.0636081 26.684 0.195414 26.3127 0.527371 25.9413C2.06511 24.237 3.57845 22.5073 5.09178 20.7827C7.0347 18.5697 8.9581 16.3466 10.9108 14.1488C11.3697 13.635 11.9164 13.2026 12.4339 12.7447C13.0539 12.2004 13.8349 12.0579 14.5867 11.9409C16.1782 11.6916 17.6964 11.8748 19.0389 12.9635C20.3667 14.042 21.7384 15.0595 23.0907 16.1075C23.2957 16.2652 23.5105 16.4076 23.8034 16.6162C27.8748 11.3406 31.8924 6.06503 35.9638 0.769104C36.12 0.870851 36.2664 0.942074 36.3787 1.04891C36.8425 1.49151 37.2818 1.97481 37.7651 2.39197C38.0727 2.65651 38.1605 2.95158 38.1605 3.3433C38.1508 5.36807 38.1557 7.39283 38.1557 9.41251C38.1557 11.1422 38.1459 12.877 38.1605 14.6067C38.1654 15.0188 38.0532 15.3444 37.7993 15.6699C36.4666 17.3691 35.1632 19.0886 33.8353 20.7878C31.9315 23.2246 30.0471 25.6768 28.0798 28.0576C27.162 29.1718 26.0441 30.0671 24.604 30.3927C22.9491 30.7641 21.4553 30.2706 20.025 29.4668C18.7167 28.7292 17.6671 27.6354 16.5199 26.679C16.0464 26.2872 15.5777 25.8955 15.0358 25.4427Z" fill="#E5E5E5"/>
<path d="M99.3037 28.6528C98.1565 28.6528 97.1753 28.6528 96.194 28.6528C95.8328 28.6528 95.7449 28.3476 95.6131 28.0983C94.7539 26.506 93.8801 24.9238 93.06 23.306C92.728 22.6498 92.3326 22.2835 91.5808 22.3903C91.1512 22.4514 90.707 22.4005 90.1895 22.4005C90.1895 24.5117 90.1895 26.5212 90.1895 28.5918C89.1839 28.5918 88.2612 28.5918 87.2507 28.5918C87.1433 26.8977 87.2166 25.1782 87.2068 23.4637C87.1921 21.7086 87.2019 19.9535 87.2019 18.1983C87.2019 16.4737 87.2019 14.7542 87.2019 13.0092C87.4509 12.9736 87.6071 12.9329 87.7633 12.9329C89.7502 12.9279 91.737 12.9228 93.7239 12.9329C95.0175 12.9431 96.1452 13.3603 97.0483 14.3828C98.8399 16.4076 98.5763 20.1163 96.3014 21.673C96.1452 21.7798 96.0036 21.8968 95.7888 22.0596C96.3698 23.1534 96.9458 24.237 97.5219 25.3155C98.0881 26.3839 98.6544 27.4421 99.3037 28.6528ZM90.2823 16.0667C90.1309 16.9062 90.1505 18.7274 90.3116 19.3277C91.5759 19.3277 92.8598 19.3684 94.1339 19.3125C94.793 19.287 95.2128 18.6613 95.2567 17.8575C95.3056 16.9825 94.9297 16.2906 94.295 16.1024C94.2267 16.082 94.1584 16.0667 94.09 16.0667C92.8256 16.0617 91.5662 16.0667 90.2823 16.0667Z" fill="white"/>
<path d="M74.4463 12.9838C77.8781 12.9838 81.2416 12.9838 84.6979 12.9838C84.8053 13.9708 84.7223 14.9526 84.7516 16.0413C82.2815 16.0413 79.865 16.0413 77.3948 16.0413C77.3948 17.2012 77.3948 18.2594 77.3948 19.4041C79.8211 19.4041 82.2229 19.4041 84.7174 19.4041C84.776 20.447 84.7467 21.4085 84.737 22.4616C82.2717 22.5633 79.8552 22.4361 77.3948 22.5328C77.3948 23.5553 77.3948 24.5168 77.3948 25.5648C79.8259 25.5648 82.2277 25.5648 84.5954 25.5648C84.776 26.1601 84.8102 27.6761 84.6881 28.5308C84.1853 28.6986 75.1785 28.7241 74.4463 28.5511C74.4463 23.4027 74.4463 18.2441 74.4463 12.9838Z" fill="white"/>
<path d="M106.432 25.1426C107.139 24.5626 107.808 24.0081 108.541 23.4078C108.75 23.7588 108.941 24.0335 109.087 24.3286C110.117 26.389 112.915 26.3788 114.174 25.3563C115.194 24.527 115.17 23.4536 114.057 22.7566C113.647 22.5023 113.154 22.3649 112.685 22.2428C111.938 22.0495 111.172 21.9325 110.425 21.7442C109.175 21.4237 108.155 20.7064 107.413 19.6126C106.29 17.9491 106.52 15.7717 107.945 14.2709C110.147 11.9511 114.33 11.9969 116.444 14.393C116.835 14.8356 117.113 15.38 117.494 15.9498C116.791 16.5908 116.132 17.186 115.409 17.8422C115.194 17.5268 115.014 17.2877 114.857 17.0283C113.925 15.4715 112.251 15.3749 111.157 15.787C110.776 15.9294 110.4 16.1889 110.112 16.4839C109.619 16.9825 109.673 17.5879 110.166 18.0864C110.606 18.5341 111.177 18.6817 111.748 18.8088C112.48 18.9716 113.222 19.0836 113.949 19.2718C115.233 19.6025 116.327 20.2791 117.123 21.4034C118.392 23.1941 118.275 25.3766 116.835 27.03C116.054 27.9254 115.092 28.5206 113.984 28.8004C111.636 29.3905 109.478 29.0242 107.647 27.264C107.066 26.7044 106.705 26.0023 106.432 25.1426Z" fill="white"/>
<path d="M60.133 16.2499C59.3519 16.8604 58.6294 17.42 57.8483 18.0305C57.6238 17.7303 57.4383 17.4607 57.2235 17.2114C56.0714 15.8785 54.641 15.3647 52.9813 15.8327C51.6241 16.2143 50.7552 17.2521 50.2621 18.585C49.5299 20.564 49.7007 22.4768 50.9016 24.2116C52.7518 26.8875 55.9249 26.1295 57.2479 24.3693C57.4334 24.1251 57.614 23.8809 57.819 23.6113C57.9899 23.7232 58.1119 23.7843 58.2193 23.8707C58.8344 24.3489 59.4447 24.8322 60.089 25.341C59.2152 26.8061 58.1022 27.9152 56.5937 28.5257C52.7176 30.0875 48.5731 28.0525 47.2355 23.8656C46.2445 20.7725 46.596 17.8219 48.5926 15.2375C51.3996 11.6102 56.6035 11.6611 59.4056 15.2884C59.6302 15.5733 59.8401 15.8633 60.133 16.2499Z" fill="white"/>
<path d="M62.1101 12.9838C62.2614 12.9685 62.4469 12.9329 62.6275 12.9329C63.3744 12.9278 64.1165 12.9329 64.9415 12.9329C64.9659 13.284 65.0001 13.5638 65.0001 13.8436C65.0049 17.3793 65.0049 20.915 65.0049 24.4507C65.0049 24.7407 65.0049 25.0306 65.0049 25.402C65.2783 25.4275 65.498 25.4682 65.7226 25.4682C67.4312 25.4885 69.1398 25.5038 70.8435 25.5241C71.1657 25.5292 71.4927 25.5597 71.7954 25.575C71.976 26.16 71.9956 27.8541 71.8296 28.607C68.5979 28.607 65.3564 28.607 62.115 28.607C62.0954 28.5918 62.0808 28.5765 62.0661 28.5613C62.0515 28.546 62.032 28.5256 62.0271 28.5002C62.0076 28.4086 61.9783 28.312 61.9783 28.2153C61.9734 23.2908 61.9734 18.3662 61.9783 13.4417C61.9783 13.345 61.9929 13.2483 62.0124 13.1517C62.0222 13.111 62.0613 13.0703 62.1101 12.9838Z" fill="white"/>
<path d="M104.102 28.658C103.331 28.658 102.584 28.6631 101.837 28.658C101.652 28.658 101.471 28.6325 101.3 28.6224C101.149 28.0271 101.129 13.7724 101.29 12.9686C102.208 12.9228 103.15 12.9381 104.073 12.9635C104.234 13.5689 104.263 27.8033 104.102 28.658Z" fill="white"/>
<path d="M8.93885e-05 27.1978L0.0977238 39.728L2.68992 40.8421L15.0358 25.4427L9.03127 20.2943C7.86942 19.2514 6.18523 19.5109 5.15519 20.6962L0.537079 25.7836C0.190476 26.1651 -0.00479233 26.6739 8.93885e-05 27.1978Z" fill="#9C9C9C"/>
<path d="M38.1657 14.683L38.2097 2.72263L36.0422 0.657166L23.8037 16.6162L29.5983 21.7493C30.7602 22.7922 32.3321 22.5684 33.367 21.383L37.7703 15.8276C38.0242 15.5071 38.1608 15.1001 38.1657 14.683Z" fill="#9C9C9C"/>
</svg>
