<svg width="75" height="56" viewBox="0 0 75 56" fill="none" xmlns="http://www.w3.org/2000/svg">
<path d="M0.746094 26.2266V0.542969H28.5781V21.1484C28.5781 30.7188 26.2344 38.401 21.5469 44.1953C16.9245 49.9896 10.1536 53.7331 1.23438 55.4258V45.1719C7.8099 43.0885 12.237 39.5078 14.5156 34.4297C15.7526 31.7604 16.2734 29.026 16.0781 26.2266H0.746094ZM67.8359 43.9023C63.2786 49.8268 56.4427 53.668 47.3281 55.4258V45.1719C54.0339 43.1536 58.4935 39.4427 60.707 34.0391C61.6185 31.8906 62.0742 29.2865 62.0742 26.2266H46.8398V0.542969H74.5742V21.1484C74.5742 30.4583 72.3281 38.043 67.8359 43.9023Z" fill="white"/>
</svg>
