<svg width="75" height="56" viewBox="0 0 75 56" fill="none" xmlns="http://www.w3.org/2000/svg">
<path d="M0.574219 55.5703V34.9648C0.574219 25.1992 2.88542 17.4844 7.50781 11.8203C12.1953 6.15625 18.9987 2.44531 27.918 0.6875V10.8438C21.2773 12.9271 16.8177 16.5078 14.5391 21.5859C13.3672 24.2552 12.8789 27.0221 13.0742 29.8867H28.4062V55.5703H0.574219ZM74.207 10.8438C67.6315 12.862 63.2044 16.5078 60.9258 21.7812C59.6237 24.5807 59.1029 27.2826 59.3633 29.8867H74.6953V55.5703H46.8633V34.9648C46.8633 25.069 49.2396 17.3216 53.9922 11.7227C58.8099 6.1237 65.5482 2.44531 74.207 0.6875V10.8438Z" fill="white"/>
</svg>
